<svg xmlns="http://www.w3.org/2000/svg" xmlns:xlink="http://www.w3.org/1999/xlink" width="999" zoomAndPan="magnify" viewBox="0 0 750 749.999995" height="999" preserveAspectRatio="xMidYMid meet" version="1.0"><defs><clipPath id="c0c7f37e69"><path d="M 494 112 L 698 112 L 698 309 L 494 309 Z M 494 112 " clip-rule="nonzero"/></clipPath><clipPath id="5c8dd90b7a"><path d="M 706.839844 285.589844 L 677.179688 316.949219 L 485.222656 135.402344 L 514.878906 104.042969 Z M 706.839844 285.589844 " clip-rule="nonzero"/></clipPath><clipPath id="0e2ff5e4c4"><path d="M 692.011719 301.269531 C 683.820312 309.929688 670.160156 310.308594 661.5 302.117188 L 500.914062 150.246094 C 492.253906 142.054688 491.875 128.394531 500.0625 119.734375 C 508.253906 111.074219 521.914062 110.695312 530.574219 118.882812 L 691.160156 270.757812 C 699.820312 278.949219 700.199219 292.609375 692.011719 301.269531 Z M 692.011719 301.269531 " clip-rule="nonzero"/></clipPath><clipPath id="f5f5a0408c"><path d="M 109 159 L 362 159 L 362 411 L 109 411 Z M 109 159 " clip-rule="nonzero"/></clipPath><clipPath id="2f5a02decc"><path d="M 228.660156 144.496094 L 376.519531 284.589844 L 243.195312 425.300781 L 95.335938 285.207031 Z M 228.660156 144.496094 " clip-rule="nonzero"/></clipPath><clipPath id="9bc495c2f3"><path d="M 254.25 168.738281 L 350.847656 260.265625 C 364.976562 273.652344 365.578125 295.964844 352.191406 310.097656 L 267.355469 399.632812 C 253.964844 413.765625 231.652344 414.367188 217.523438 400.976562 L 120.925781 309.453125 C 106.792969 296.0625 106.191406 273.75 119.582031 259.617188 L 204.417969 170.082031 C 217.804688 155.949219 240.117188 155.347656 254.25 168.738281 Z M 254.25 168.738281 " clip-rule="nonzero"/></clipPath><clipPath id="59adaa7547"><path d="M 261 308 L 514 308 L 514 561 L 261 561 Z M 261 308 " clip-rule="nonzero"/></clipPath><clipPath id="91ec071023"><path d="M 379.976562 294.171875 L 527.832031 434.265625 L 394.507812 574.976562 L 246.652344 434.882812 Z M 379.976562 294.171875 " clip-rule="nonzero"/></clipPath><clipPath id="cdd6aaa9a1"><path d="M 405.5625 318.417969 L 502.160156 409.941406 C 516.292969 423.332031 516.894531 445.640625 503.503906 459.773438 L 418.667969 549.308594 C 405.28125 563.441406 382.96875 564.042969 368.835938 550.652344 L 272.238281 459.128906 C 258.109375 445.738281 257.507812 423.429688 270.894531 409.296875 L 355.730469 319.761719 C 369.121094 305.628906 391.429688 305.027344 405.5625 318.417969 Z M 405.5625 318.417969 " clip-rule="nonzero"/></clipPath><clipPath id="cab6a4cec8"><path d="M 401 158 L 654 158 L 654 411 L 401 411 Z M 401 158 " clip-rule="nonzero"/></clipPath><clipPath id="92e2cc443a"><path d="M 520.230469 144.082031 L 668.089844 284.175781 L 534.765625 424.886719 L 386.90625 284.792969 Z M 520.230469 144.082031 " clip-rule="nonzero"/></clipPath><clipPath id="0294824bc6"><path d="M 545.816406 168.324219 L 642.414062 259.851562 C 656.546875 273.238281 657.148438 295.550781 643.757812 309.683594 L 558.925781 399.21875 C 545.535156 413.351562 523.222656 413.953125 509.089844 400.5625 L 412.496094 309.039062 C 398.363281 295.648438 397.761719 273.335938 411.152344 259.203125 L 495.984375 169.667969 C 509.375 155.535156 531.6875 154.933594 545.816406 168.324219 Z M 545.816406 168.324219 " clip-rule="nonzero"/></clipPath><clipPath id="a285b9daba"><path d="M 215 113 L 539 113 L 539 451 L 215 451 Z M 215 113 " clip-rule="nonzero"/></clipPath><clipPath id="f0f95ebd55"><path d="M 515.910156 104.125 L 547.15625 133.90625 L 237.25 459.042969 L 206.003906 429.261719 Z M 515.910156 104.125 " clip-rule="nonzero"/></clipPath><clipPath id="62fbddae3a"><path d="M 531.535156 119.015625 C 540.164062 127.238281 540.488281 140.898438 532.265625 149.527344 L 252.226562 443.332031 C 244 451.957031 230.339844 452.285156 221.710938 444.0625 C 213.085938 435.839844 212.757812 422.175781 220.980469 413.550781 L 501.019531 119.746094 C 509.246094 111.117188 522.90625 110.789062 531.535156 119.015625 Z M 531.535156 119.015625 " clip-rule="nonzero"/></clipPath><clipPath id="f75d04d71c"><path d="M 200 119 L 555 119 L 555 456 L 200 456 Z M 200 119 " clip-rule="nonzero"/></clipPath><clipPath id="25e88c7fbf"><path d="M 563.269531 433.246094 L 533.679688 464.671875 L 191.332031 142.277344 L 220.925781 110.855469 Z M 563.269531 433.246094 " clip-rule="nonzero"/></clipPath><clipPath id="ad53b04a9f"><path d="M 548.476562 448.957031 C 540.304688 457.636719 526.644531 458.046875 517.96875 449.875 L 207.066406 157.09375 C 198.386719 148.921875 197.976562 135.261719 206.148438 126.585938 C 214.320312 117.90625 227.980469 117.496094 236.65625 125.667969 L 547.558594 418.449219 C 556.238281 426.621094 556.644531 440.28125 548.476562 448.957031 Z M 548.476562 448.957031 " clip-rule="nonzero"/></clipPath><clipPath id="dd657073d7"><path d="M 63 268 L 401 268 L 401 589 L 63 589 Z M 63 268 " clip-rule="nonzero"/></clipPath><clipPath id="d5cc3773d8"><path d="M 409.519531 565.988281 L 379.925781 597.410156 L 54.398438 290.855469 L 83.988281 259.433594 Z M 409.519531 565.988281 " clip-rule="nonzero"/></clipPath><clipPath id="5844f54d8f"><path d="M 394.722656 581.699219 C 386.550781 590.378906 372.890625 590.789062 364.214844 582.617188 L 70.15625 305.695312 C 61.476562 297.523438 61.066406 283.863281 69.238281 275.1875 C 77.410156 266.507812 91.070312 266.101562 99.746094 274.269531 L 393.804688 551.191406 C 402.484375 559.363281 402.894531 573.023438 394.722656 581.699219 Z M 394.722656 581.699219 " clip-rule="nonzero"/></clipPath><clipPath id="ee507282da"><path d="M 497 225 L 566 225 L 566 293 L 497 293 Z M 497 225 " clip-rule="nonzero"/></clipPath><clipPath id="de5be9f4e3"><path d="M 527.667969 209.738281 L 601.34375 272.449219 L 526.964844 359.832031 L 453.289062 297.117188 Z M 527.667969 209.738281 " clip-rule="nonzero"/></clipPath><clipPath id="1627d7451a"><path d="M 527.667969 209.738281 L 601.34375 272.449219 L 526.964844 359.832031 L 453.289062 297.117188 Z M 527.667969 209.738281 " clip-rule="nonzero"/></clipPath><clipPath id="9f5e265c61"><path d="M 483 297 L 562 297 L 562 331 L 483 331 Z M 483 297 " clip-rule="nonzero"/></clipPath><clipPath id="3b6a02bcc3"><path d="M 527.667969 209.738281 L 601.34375 272.449219 L 526.964844 359.832031 L 453.289062 297.117188 Z M 527.667969 209.738281 " clip-rule="nonzero"/></clipPath><clipPath id="5c16fca6e2"><path d="M 527.667969 209.738281 L 601.34375 272.449219 L 526.964844 359.832031 L 453.289062 297.117188 Z M 527.667969 209.738281 " clip-rule="nonzero"/></clipPath><clipPath id="4ad64f3050"><path d="M 159 244 L 287 244 L 287 352 L 159 352 Z M 159 244 " clip-rule="nonzero"/></clipPath><clipPath id="efbf9f01b5"><path d="M 220.851562 222.035156 L 290.042969 288.585938 L 228.171875 352.910156 L 158.984375 286.359375 Z M 220.851562 222.035156 " clip-rule="nonzero"/></clipPath><clipPath id="73a90c9110"><path d="M 220.851562 222.035156 L 290.042969 288.585938 L 228.171875 352.910156 L 158.984375 286.359375 Z M 220.851562 222.035156 " clip-rule="nonzero"/></clipPath><clipPath id="58ef5855f0"><path d="M 200 119 L 393 119 L 393 304 L 200 304 Z M 200 119 " clip-rule="nonzero"/></clipPath><clipPath id="3d11f8474f"><path d="M 401.175781 280.601562 L 371.582031 312.023438 L 191.265625 142.214844 L 220.859375 110.792969 Z M 401.175781 280.601562 " clip-rule="nonzero"/></clipPath><clipPath id="4152755197"><path d="M 386.378906 296.3125 C 378.207031 304.988281 364.550781 305.398438 355.871094 297.226562 L 207.066406 157.09375 C 198.386719 148.921875 197.976562 135.265625 206.148438 126.585938 C 214.320312 117.910156 227.980469 117.5 236.65625 125.671875 L 385.464844 265.804688 C 394.140625 273.976562 394.550781 287.632812 386.378906 296.3125 Z M 386.378906 296.3125 " clip-rule="nonzero"/></clipPath><clipPath id="16d1cac5af"><path d="M 500 118 L 698 118 L 698 308 L 500 308 Z M 500 118 " clip-rule="nonzero"/></clipPath><clipPath id="3ccb082663"><path d="M 706.863281 285.226562 L 677.273438 316.652344 L 491.0625 141.292969 L 520.65625 109.871094 Z M 706.863281 285.226562 " clip-rule="nonzero"/></clipPath><clipPath id="117aa91f0e"><path d="M 692.070312 300.9375 C 683.898438 309.617188 670.238281 310.027344 661.5625 301.855469 L 506.839844 156.148438 C 498.160156 147.980469 497.75 134.320312 505.921875 125.640625 C 514.09375 116.964844 527.753906 116.554688 536.429688 124.726562 L 691.152344 270.429688 C 699.832031 278.601562 700.242188 292.261719 692.070312 300.9375 Z M 692.070312 300.9375 " clip-rule="nonzero"/></clipPath><clipPath id="99dfb1c75e"><path d="M 67 271 L 415 271 L 415 602 L 67 602 Z M 67 271 " clip-rule="nonzero"/></clipPath><clipPath id="115bc67e9b"><path d="M 423.304688 578.667969 L 393.714844 610.089844 L 58.367188 294.285156 L 87.957031 262.863281 Z M 423.304688 578.667969 " clip-rule="nonzero"/></clipPath><clipPath id="aa5839ec33"><path d="M 408.511719 594.378906 C 400.339844 603.054688 386.679688 603.464844 378.003906 595.292969 L 74.085938 309.089844 C 65.410156 300.921875 65 287.261719 73.171875 278.582031 C 81.34375 269.90625 95.003906 269.496094 103.679688 277.667969 L 407.59375 563.871094 C 416.273438 572.042969 416.683594 585.699219 408.511719 594.378906 Z M 408.511719 594.378906 " clip-rule="nonzero"/></clipPath><clipPath id="79846a1596"><path d="M 60 119 L 243 119 L 243 308 L 60 308 Z M 60 119 " clip-rule="nonzero"/></clipPath><clipPath id="4e594bf842"><path d="M 220.453125 110.847656 L 251.609375 140.722656 L 82.648438 316.960938 L 51.492188 287.085938 Z M 220.453125 110.847656 " clip-rule="nonzero"/></clipPath><clipPath id="517cead88f"><path d="M 236.03125 125.785156 C 244.636719 134.035156 244.921875 147.695312 236.675781 156.300781 L 97.6875 301.273438 C 89.441406 309.875 75.777344 310.164062 67.175781 301.914062 C 58.570312 293.667969 58.28125 280.003906 66.53125 271.402344 L 205.515625 126.429688 C 213.765625 117.824219 227.425781 117.535156 236.03125 125.785156 Z M 236.03125 125.785156 " clip-rule="nonzero"/></clipPath><clipPath id="15c772ad3b"><path d="M 377 264 L 698 264 L 698 596 L 377 596 Z M 377 264 " clip-rule="nonzero"/></clipPath><clipPath id="3b82f66263"><path d="M 675.789062 256.019531 L 706.816406 286.027344 L 399.214844 604.03125 L 368.1875 574.019531 Z M 675.789062 256.019531 " clip-rule="nonzero"/></clipPath><clipPath id="2704f44e2a"><path d="M 691.304688 271.023438 C 699.871094 279.308594 700.097656 292.972656 691.808594 301.539062 L 414.242188 588.496094 C 405.953125 597.0625 392.292969 597.289062 383.722656 589 C 375.15625 580.714844 374.929688 567.050781 383.21875 558.484375 L 660.785156 271.53125 C 669.074219 262.964844 682.734375 262.734375 691.304688 271.023438 Z M 691.304688 271.023438 " clip-rule="nonzero"/></clipPath><clipPath id="9ffd8bd8c4"><path d="M 351 113 L 539 113 L 539 306 L 351 306 Z M 351 113 " clip-rule="nonzero"/></clipPath><clipPath id="197faa40fa"><path d="M 515.992188 104.128906 L 547.152344 134 L 373.875 314.742188 L 342.714844 284.871094 Z M 515.992188 104.128906 " clip-rule="nonzero"/></clipPath><clipPath id="03cf771633"><path d="M 531.574219 119.066406 C 540.175781 127.3125 540.464844 140.976562 532.214844 149.578125 L 388.871094 299.097656 C 380.621094 307.703125 366.960938 307.992188 358.355469 299.742188 C 349.753906 291.492188 349.464844 277.832031 357.714844 269.226562 L 501.058594 119.707031 C 509.308594 111.105469 522.96875 110.816406 531.574219 119.066406 Z M 531.574219 119.066406 " clip-rule="nonzero"/></clipPath><clipPath id="600c1c5b74"><path d="M 331 391 L 390 391 L 390 449 L 331 449 Z M 331 391 " clip-rule="nonzero"/></clipPath><clipPath id="56a269b173"><path d="M 327.878906 383.265625 L 435.65625 390.230469 L 429.800781 480.792969 L 322.027344 473.824219 Z M 327.878906 383.265625 " clip-rule="nonzero"/></clipPath><clipPath id="a2621061e1"><path d="M 327.878906 383.265625 L 435.65625 390.230469 L 429.800781 480.792969 L 322.027344 473.824219 Z M 327.878906 383.265625 " clip-rule="nonzero"/></clipPath><clipPath id="4ffaff3509"><path d="M 355 385 L 370 385 L 370 400 L 355 400 Z M 355 385 " clip-rule="nonzero"/></clipPath><clipPath id="399531ab87"><path d="M 327.878906 383.265625 L 435.65625 390.230469 L 429.800781 480.792969 L 322.027344 473.824219 Z M 327.878906 383.265625 " clip-rule="nonzero"/></clipPath><clipPath id="a0dadd1424"><path d="M 327.878906 383.265625 L 435.65625 390.230469 L 429.800781 480.792969 L 322.027344 473.824219 Z M 327.878906 383.265625 " clip-rule="nonzero"/></clipPath><clipPath id="eb595cf72f"><path d="M 372 393 L 390 393 L 390 411 L 372 411 Z M 372 393 " clip-rule="nonzero"/></clipPath><clipPath id="49682a292b"><path d="M 327.878906 383.265625 L 435.65625 390.230469 L 429.800781 480.792969 L 322.027344 473.824219 Z M 327.878906 383.265625 " clip-rule="nonzero"/></clipPath><clipPath id="b2edc5304a"><path d="M 327.878906 383.265625 L 435.65625 390.230469 L 429.800781 480.792969 L 322.027344 473.824219 Z M 327.878906 383.265625 " clip-rule="nonzero"/></clipPath><clipPath id="cf93409ded"><path d="M 381 414 L 396 414 L 396 429 L 381 429 Z M 381 414 " clip-rule="nonzero"/></clipPath><clipPath id="ed852f9ecf"><path d="M 327.878906 383.265625 L 435.65625 390.230469 L 429.800781 480.792969 L 322.027344 473.824219 Z M 327.878906 383.265625 " clip-rule="nonzero"/></clipPath><clipPath id="8c8eaec31d"><path d="M 327.878906 383.265625 L 435.65625 390.230469 L 429.800781 480.792969 L 322.027344 473.824219 Z M 327.878906 383.265625 " clip-rule="nonzero"/></clipPath><clipPath id="df50ea9449"><path d="M 370 432 L 388 432 L 388 450 L 370 450 Z M 370 432 " clip-rule="nonzero"/></clipPath><clipPath id="9f8e9e254b"><path d="M 327.878906 383.265625 L 435.65625 390.230469 L 429.800781 480.792969 L 322.027344 473.824219 Z M 327.878906 383.265625 " clip-rule="nonzero"/></clipPath><clipPath id="ee32e09aad"><path d="M 327.878906 383.265625 L 435.65625 390.230469 L 429.800781 480.792969 L 322.027344 473.824219 Z M 327.878906 383.265625 " clip-rule="nonzero"/></clipPath><clipPath id="fd56c6cb7a"><path d="M 351 440 L 366 440 L 366 456 L 351 456 Z M 351 440 " clip-rule="nonzero"/></clipPath><clipPath id="fec06ff510"><path d="M 327.878906 383.265625 L 435.65625 390.230469 L 429.800781 480.792969 L 322.027344 473.824219 Z M 327.878906 383.265625 " clip-rule="nonzero"/></clipPath><clipPath id="78442ed8f1"><path d="M 327.878906 383.265625 L 435.65625 390.230469 L 429.800781 480.792969 L 322.027344 473.824219 Z M 327.878906 383.265625 " clip-rule="nonzero"/></clipPath><clipPath id="ab26bd44a2"><path d="M 331 430 L 348 430 L 348 447 L 331 447 Z M 331 430 " clip-rule="nonzero"/></clipPath><clipPath id="a86e7bf3b9"><path d="M 327.878906 383.265625 L 435.65625 390.230469 L 429.800781 480.792969 L 322.027344 473.824219 Z M 327.878906 383.265625 " clip-rule="nonzero"/></clipPath><clipPath id="81695a4c45"><path d="M 327.878906 383.265625 L 435.65625 390.230469 L 429.800781 480.792969 L 322.027344 473.824219 Z M 327.878906 383.265625 " clip-rule="nonzero"/></clipPath><clipPath id="567b368b1f"><path d="M 325 411 L 340 411 L 340 426 L 325 426 Z M 325 411 " clip-rule="nonzero"/></clipPath><clipPath id="e64e075476"><path d="M 327.878906 383.265625 L 435.65625 390.230469 L 429.800781 480.792969 L 322.027344 473.824219 Z M 327.878906 383.265625 " clip-rule="nonzero"/></clipPath><clipPath id="592053c44c"><path d="M 327.878906 383.265625 L 435.65625 390.230469 L 429.800781 480.792969 L 322.027344 473.824219 Z M 327.878906 383.265625 " clip-rule="nonzero"/></clipPath><clipPath id="255af7cbd3"><path d="M 333 390 L 351 390 L 351 408 L 333 408 Z M 333 390 " clip-rule="nonzero"/></clipPath><clipPath id="ca5431eb3e"><path d="M 327.878906 383.265625 L 435.65625 390.230469 L 429.800781 480.792969 L 322.027344 473.824219 Z M 327.878906 383.265625 " clip-rule="nonzero"/></clipPath><clipPath id="585b9ee6f0"><path d="M 327.878906 383.265625 L 435.65625 390.230469 L 429.800781 480.792969 L 322.027344 473.824219 Z M 327.878906 383.265625 " clip-rule="nonzero"/></clipPath><clipPath id="9010d510e4"><path d="M 388 436 L 428 436 L 428 476 L 388 476 Z M 388 436 " clip-rule="nonzero"/></clipPath><clipPath id="9bdcf7eded"><path d="M 327.878906 383.265625 L 435.65625 390.230469 L 429.800781 480.792969 L 322.027344 473.824219 Z M 327.878906 383.265625 " clip-rule="nonzero"/></clipPath><clipPath id="72d55996eb"><path d="M 327.878906 383.265625 L 435.65625 390.230469 L 429.800781 480.792969 L 322.027344 473.824219 Z M 327.878906 383.265625 " clip-rule="nonzero"/></clipPath><clipPath id="c08402a2df"><path d="M 404 432 L 414 432 L 414 442 L 404 442 Z M 404 432 " clip-rule="nonzero"/></clipPath><clipPath id="ce368738e4"><path d="M 327.878906 383.265625 L 435.65625 390.230469 L 429.800781 480.792969 L 322.027344 473.824219 Z M 327.878906 383.265625 " clip-rule="nonzero"/></clipPath><clipPath id="ebe269cb7e"><path d="M 327.878906 383.265625 L 435.65625 390.230469 L 429.800781 480.792969 L 322.027344 473.824219 Z M 327.878906 383.265625 " clip-rule="nonzero"/></clipPath><clipPath id="a4595c9be0"><path d="M 416 437 L 428 437 L 428 450 L 416 450 Z M 416 437 " clip-rule="nonzero"/></clipPath><clipPath id="2d55fe84ea"><path d="M 327.878906 383.265625 L 435.65625 390.230469 L 429.800781 480.792969 L 322.027344 473.824219 Z M 327.878906 383.265625 " clip-rule="nonzero"/></clipPath><clipPath id="ebf762b9ac"><path d="M 327.878906 383.265625 L 435.65625 390.230469 L 429.800781 480.792969 L 322.027344 473.824219 Z M 327.878906 383.265625 " clip-rule="nonzero"/></clipPath><clipPath id="6134a19e04"><path d="M 421 452 L 432 452 L 432 462 L 421 462 Z M 421 452 " clip-rule="nonzero"/></clipPath><clipPath id="cc443016c7"><path d="M 327.878906 383.265625 L 435.65625 390.230469 L 429.800781 480.792969 L 322.027344 473.824219 Z M 327.878906 383.265625 " clip-rule="nonzero"/></clipPath><clipPath id="6d1ff1d36a"><path d="M 327.878906 383.265625 L 435.65625 390.230469 L 429.800781 480.792969 L 322.027344 473.824219 Z M 327.878906 383.265625 " clip-rule="nonzero"/></clipPath><clipPath id="8c71fe3c3a"><path d="M 414 464 L 426 464 L 426 476 L 414 476 Z M 414 464 " clip-rule="nonzero"/></clipPath><clipPath id="2226be815a"><path d="M 327.878906 383.265625 L 435.65625 390.230469 L 429.800781 480.792969 L 322.027344 473.824219 Z M 327.878906 383.265625 " clip-rule="nonzero"/></clipPath><clipPath id="233bc6ed8d"><path d="M 327.878906 383.265625 L 435.65625 390.230469 L 429.800781 480.792969 L 322.027344 473.824219 Z M 327.878906 383.265625 " clip-rule="nonzero"/></clipPath><clipPath id="36a68707f1"><path d="M 401 469 L 412 469 L 412 480 L 401 480 Z M 401 469 " clip-rule="nonzero"/></clipPath><clipPath id="60e67bfcd4"><path d="M 327.878906 383.265625 L 435.65625 390.230469 L 429.800781 480.792969 L 322.027344 473.824219 Z M 327.878906 383.265625 " clip-rule="nonzero"/></clipPath><clipPath id="0d74b97977"><path d="M 327.878906 383.265625 L 435.65625 390.230469 L 429.800781 480.792969 L 322.027344 473.824219 Z M 327.878906 383.265625 " clip-rule="nonzero"/></clipPath><clipPath id="e59a70b3e6"><path d="M 387 462 L 400 462 L 400 475 L 387 475 Z M 387 462 " clip-rule="nonzero"/></clipPath><clipPath id="d400f45676"><path d="M 327.878906 383.265625 L 435.65625 390.230469 L 429.800781 480.792969 L 322.027344 473.824219 Z M 327.878906 383.265625 " clip-rule="nonzero"/></clipPath><clipPath id="2459e05e03"><path d="M 327.878906 383.265625 L 435.65625 390.230469 L 429.800781 480.792969 L 322.027344 473.824219 Z M 327.878906 383.265625 " clip-rule="nonzero"/></clipPath><clipPath id="0cad7dad64"><path d="M 384 449 L 394 449 L 394 460 L 384 460 Z M 384 449 " clip-rule="nonzero"/></clipPath><clipPath id="c30418d89a"><path d="M 327.878906 383.265625 L 435.65625 390.230469 L 429.800781 480.792969 L 322.027344 473.824219 Z M 327.878906 383.265625 " clip-rule="nonzero"/></clipPath><clipPath id="5e6bf181d3"><path d="M 327.878906 383.265625 L 435.65625 390.230469 L 429.800781 480.792969 L 322.027344 473.824219 Z M 327.878906 383.265625 " clip-rule="nonzero"/></clipPath><clipPath id="f2ca555697"><path d="M 389 436 L 401 436 L 401 448 L 389 448 Z M 389 436 " clip-rule="nonzero"/></clipPath><clipPath id="f164863795"><path d="M 327.878906 383.265625 L 435.65625 390.230469 L 429.800781 480.792969 L 322.027344 473.824219 Z M 327.878906 383.265625 " clip-rule="nonzero"/></clipPath><clipPath id="2862bb6c75"><path d="M 327.878906 383.265625 L 435.65625 390.230469 L 429.800781 480.792969 L 322.027344 473.824219 Z M 327.878906 383.265625 " clip-rule="nonzero"/></clipPath><clipPath id="86a3de19ef"><path d="M 106 162 L 347 162 L 347 403 L 106 403 Z M 106 162 " clip-rule="nonzero"/></clipPath><clipPath id="648a7e65d6"><path d="M 220.980469 162.746094 L 346.667969 283.074219 L 232.046875 402.800781 L 106.359375 282.476562 Z M 220.980469 162.746094 " clip-rule="nonzero"/></clipPath><clipPath id="efc07a81dc"><path d="M 220.980469 162.746094 L 346.546875 282.960938 L 231.953125 402.660156 L 106.382812 282.449219 Z M 220.980469 162.746094 " clip-rule="nonzero"/></clipPath><clipPath id="408b35dcda"><path d="M 262 308 L 509 308 L 509 554 L 262 554 Z M 262 308 " clip-rule="nonzero"/></clipPath><clipPath id="e7f67839df"><path d="M 380.054688 308.746094 L 508.449219 431.664062 L 391.234375 554.101562 L 262.839844 431.183594 Z M 380.054688 308.746094 " clip-rule="nonzero"/></clipPath><clipPath id="9803493ab4"><path d="M 380.054688 308.75 L 508.347656 431.566406 L 391.1875 553.945312 L 262.898438 431.125 Z M 380.054688 308.75 " clip-rule="nonzero"/></clipPath><clipPath id="98773d2139"><path d="M 401 162 L 649 162 L 649 411 L 401 411 Z M 401 162 " clip-rule="nonzero"/></clipPath><clipPath id="60bcb6f14f"><path d="M 518.34375 162.746094 L 648.90625 287.738281 L 531.691406 410.175781 L 401.128906 285.183594 Z M 518.34375 162.746094 " clip-rule="nonzero"/></clipPath><clipPath id="5325992144"><path d="M 518.34375 162.746094 L 648.996094 287.828125 L 531.839844 410.203125 L 401.1875 285.125 Z M 518.34375 162.746094 " clip-rule="nonzero"/></clipPath></defs><rect x="-75" width="900" fill="#ffffff" y="-74.999999" height="899.999994" fill-opacity="1"/><rect x="-75" width="900" fill="#ffffff" y="-74.999999" height="899.999994" fill-opacity="1"/><g clip-path="url(#c0c7f37e69)"><g clip-path="url(#5c8dd90b7a)"><g clip-path="url(#0e2ff5e4c4)"><path fill="#2dbaff" d="M 706.839844 285.589844 L 677.179688 316.949219 L 485.222656 135.402344 L 514.878906 104.042969 Z M 706.839844 285.589844 " fill-opacity="1" fill-rule="nonzero"/></g></g></g><g clip-path="url(#f5f5a0408c)"><g clip-path="url(#2f5a02decc)"><g clip-path="url(#9bc495c2f3)"><path fill="#2d6cb5" d="M 228.660156 144.496094 L 376.519531 284.589844 L 243.195312 425.300781 L 95.335938 285.207031 Z M 228.660156 144.496094 " fill-opacity="1" fill-rule="nonzero"/></g></g></g><g clip-path="url(#59adaa7547)"><g clip-path="url(#91ec071023)"><g clip-path="url(#cdd6aaa9a1)"><path fill="#00dba1" d="M 379.976562 294.171875 L 527.832031 434.265625 L 394.507812 574.976562 L 246.652344 434.882812 Z M 379.976562 294.171875 " fill-opacity="1" fill-rule="nonzero"/></g></g></g><g clip-path="url(#cab6a4cec8)"><g clip-path="url(#92e2cc443a)"><g clip-path="url(#0294824bc6)"><path fill="#2da9b5" d="M 520.230469 144.082031 L 668.089844 284.175781 L 534.765625 424.886719 L 386.90625 284.792969 Z M 520.230469 144.082031 " fill-opacity="1" fill-rule="nonzero"/></g></g></g><g clip-path="url(#a285b9daba)"><g clip-path="url(#f0f95ebd55)"><g clip-path="url(#62fbddae3a)"><path fill="#2dbaff" d="M 515.910156 104.125 L 547.15625 133.90625 L 237.363281 458.921875 L 206.121094 429.140625 Z M 515.910156 104.125 " fill-opacity="1" fill-rule="nonzero"/></g></g></g><g clip-path="url(#f75d04d71c)"><g clip-path="url(#25e88c7fbf)"><g clip-path="url(#ad53b04a9f)"><path fill="#2dbaff" d="M 563.269531 433.246094 L 533.679688 464.671875 L 191.332031 142.277344 L 220.925781 110.855469 Z M 563.269531 433.246094 " fill-opacity="1" fill-rule="nonzero"/></g></g></g><g clip-path="url(#dd657073d7)"><g clip-path="url(#d5cc3773d8)"><g clip-path="url(#5844f54d8f)"><path fill="#2dbaff" d="M 409.519531 565.988281 L 379.925781 597.410156 L 54.398438 290.855469 L 83.988281 259.433594 Z M 409.519531 565.988281 " fill-opacity="1" fill-rule="nonzero"/></g></g></g><g clip-path="url(#ee507282da)"><g clip-path="url(#de5be9f4e3)"><g clip-path="url(#1627d7451a)"><path fill="#ffffff" d="M 563.996094 268.691406 L 550.703125 257.378906 L 562.015625 244.089844 C 563.394531 242.472656 563.199219 240.050781 561.582031 238.675781 L 546.773438 226.070312 C 545.15625 224.695312 542.734375 224.890625 541.359375 226.503906 L 530.046875 239.796875 L 516.757812 228.484375 C 515.140625 227.105469 512.71875 227.300781 511.34375 228.917969 L 498.738281 243.726562 C 497.363281 245.34375 497.558594 247.765625 499.171875 249.140625 L 512.464844 260.453125 L 501.148438 273.742188 C 499.773438 275.359375 499.96875 277.78125 501.585938 279.15625 L 516.394531 291.761719 C 518.011719 293.136719 520.433594 292.941406 521.808594 291.328125 L 533.121094 278.035156 L 546.410156 289.351562 C 548.027344 290.726562 550.449219 290.53125 551.824219 288.914062 L 564.429688 274.105469 C 565.804688 272.488281 565.609375 270.066406 563.996094 268.691406 Z M 563.996094 268.691406 " fill-opacity="1" fill-rule="nonzero"/></g></g></g><g clip-path="url(#9f5e265c61)"><g clip-path="url(#3b6a02bcc3)"><g clip-path="url(#5c16fca6e2)"><path fill="#ffffff" d="M 516.585938 321.542969 L 510.28125 328.949219 C 509.59375 329.757812 508.382812 329.855469 507.574219 329.167969 L 500.921875 323.503906 L 495.257812 330.15625 C 494.570312 330.964844 493.359375 331.0625 492.550781 330.375 L 485.144531 324.070312 C 484.335938 323.382812 484.238281 322.171875 484.925781 321.367188 L 490.59375 314.710938 L 483.9375 309.046875 C 483.128906 308.359375 483.03125 307.148438 483.71875 306.339844 L 490.023438 298.933594 C 490.710938 298.125 491.921875 298.03125 492.730469 298.71875 L 499.382812 304.382812 L 505.046875 297.726562 C 505.738281 296.917969 506.945312 296.820312 507.753906 297.507812 L 515.160156 303.8125 C 515.96875 304.5 516.066406 305.710938 515.378906 306.519531 L 509.710938 313.171875 L 516.367188 318.839844 C 517.15625 319.507812 517.273438 320.738281 516.585938 321.542969 Z M 560.976562 317.867188 L 555.535156 313.234375 L 560.167969 307.792969 C 560.722656 307.136719 560.644531 306.140625 559.988281 305.585938 L 553.929688 300.429688 C 553.277344 299.871094 552.28125 299.953125 551.722656 300.605469 L 547.089844 306.046875 L 541.648438 301.414062 C 540.992188 300.859375 539.996094 300.9375 539.441406 301.59375 L 534.28125 307.652344 C 533.726562 308.304688 533.804688 309.300781 534.460938 309.859375 L 539.902344 314.492188 L 535.269531 319.933594 C 534.714844 320.589844 534.792969 321.585938 535.445312 322.144531 L 541.503906 327.300781 C 542.160156 327.855469 543.15625 327.777344 543.714844 327.121094 L 548.347656 321.679688 L 553.789062 326.3125 C 554.445312 326.871094 555.441406 326.789062 555.996094 326.136719 L 561.15625 320.078125 C 561.730469 319.4375 561.648438 318.441406 560.976562 317.867188 Z M 560.976562 317.867188 " fill-opacity="1" fill-rule="nonzero"/></g></g></g><g clip-path="url(#4ad64f3050)"><g clip-path="url(#efbf9f01b5)"><g clip-path="url(#73a90c9110)"><path fill="#ffffff" d="M 188.726562 258.296875 L 197.226562 266.46875 C 198 267.214844 198.023438 268.453125 197.28125 269.226562 L 171.789062 295.726562 C 171.046875 296.5 169.808594 296.523438 169.035156 295.78125 L 160.535156 287.605469 C 159.761719 286.863281 159.738281 285.625 160.484375 284.851562 L 185.972656 258.347656 C 186.71875 257.574219 187.957031 257.550781 188.726562 258.296875 Z M 208.238281 246.515625 C 209.472656 247.707031 210.132812 249.269531 210.203125 250.855469 L 227.847656 255.578125 C 228.070312 255.230469 228.332031 254.898438 228.628906 254.585938 C 231.09375 252.027344 235.160156 251.949219 237.71875 254.410156 C 240.144531 256.738281 240.34375 260.511719 238.269531 263.078125 L 246.625 275.671875 C 248.753906 275.066406 251.140625 275.574219 252.851562 277.222656 C 253.957031 278.285156 254.601562 279.652344 254.773438 281.066406 L 274.175781 284.667969 C 274.449219 284.160156 274.796875 283.675781 275.21875 283.238281 C 277.679688 280.679688 281.75 280.601562 284.308594 283.0625 C 286.867188 285.523438 286.945312 289.59375 284.484375 292.152344 C 282.023438 294.710938 277.953125 294.789062 275.394531 292.328125 C 274.285156 291.261719 273.644531 289.898438 273.46875 288.484375 L 254.070312 284.878906 C 253.796875 285.390625 253.449219 285.875 253.027344 286.3125 C 250.566406 288.871094 246.496094 288.949219 243.9375 286.488281 C 241.515625 284.15625 241.316406 280.386719 243.390625 277.820312 L 235.035156 265.222656 C 232.90625 265.832031 230.519531 265.320312 228.808594 263.675781 C 227.570312 262.488281 226.914062 260.921875 226.84375 259.335938 L 209.199219 254.613281 C 208.976562 254.964844 208.714844 255.296875 208.414062 255.605469 C 205.953125 258.164062 201.882812 258.246094 199.324219 255.785156 C 196.765625 253.324219 196.6875 249.253906 199.148438 246.695312 C 201.609375 244.136719 205.679688 244.054688 208.238281 246.515625 Z M 264.796875 294.839844 C 264.023438 294.097656 262.785156 294.121094 262.042969 294.894531 L 218.253906 340.417969 C 217.507812 341.191406 217.535156 342.429688 218.308594 343.171875 L 226.804688 351.347656 C 227.578125 352.09375 228.816406 352.066406 229.558594 351.292969 L 273.347656 305.769531 C 274.09375 304.996094 274.070312 303.757812 273.296875 303.015625 Z M 233.339844 289 C 236.175781 291.722656 239.007812 294.449219 241.839844 297.175781 C 242.613281 297.917969 242.636719 299.15625 241.894531 299.929688 C 231.363281 310.875 220.832031 321.824219 210.304688 332.773438 C 209.558594 333.546875 208.320312 333.570312 207.550781 332.824219 C 204.714844 330.101562 201.882812 327.375 199.050781 324.652344 C 198.277344 323.90625 198.253906 322.667969 198.996094 321.894531 C 209.527344 310.949219 220.058594 300 230.585938 289.054688 C 231.332031 288.28125 232.566406 288.257812 233.339844 289 Z M 218.210938 266.1875 C 217.4375 265.445312 216.199219 265.46875 215.457031 266.242188 C 203.550781 278.617188 191.644531 290.996094 179.738281 303.375 C 178.996094 304.148438 179.019531 305.382812 179.792969 306.128906 C 182.625 308.851562 185.457031 311.578125 188.292969 314.304688 C 189.066406 315.046875 190.300781 315.023438 191.046875 314.25 C 202.953125 301.871094 214.855469 289.496094 226.761719 277.117188 C 227.507812 276.34375 227.484375 275.105469 226.710938 274.363281 C 223.875 271.636719 221.042969 268.914062 218.210938 266.1875 Z M 218.210938 266.1875 " fill-opacity="1" fill-rule="evenodd"/></g></g></g><g clip-path="url(#58ef5855f0)"><g clip-path="url(#3d11f8474f)"><g clip-path="url(#4152755197)"><path fill="#2dbaff" d="M 401.175781 280.601562 L 371.582031 312.023438 L 191.390625 142.332031 L 220.980469 110.90625 Z M 401.175781 280.601562 " fill-opacity="1" fill-rule="nonzero"/></g></g></g><g clip-path="url(#16d1cac5af)"><g clip-path="url(#3ccb082663)"><g clip-path="url(#117aa91f0e)"><path fill="#2dbaff" d="M 706.863281 285.226562 L 677.273438 316.652344 L 491.1875 141.410156 L 520.777344 109.984375 Z M 706.863281 285.226562 " fill-opacity="1" fill-rule="nonzero"/></g></g></g><g clip-path="url(#99dfb1c75e)"><g clip-path="url(#115bc67e9b)"><g clip-path="url(#aa5839ec33)"><path fill="#2dbaff" d="M 423.304688 578.667969 L 393.714844 610.089844 L 58.367188 294.285156 L 87.957031 262.863281 Z M 423.304688 578.667969 " fill-opacity="1" fill-rule="nonzero"/></g></g></g><g clip-path="url(#79846a1596)"><g clip-path="url(#4e594bf842)"><g clip-path="url(#517cead88f)"><path fill="#2dbaff" d="M 220.453125 110.847656 L 251.609375 140.722656 L 82.765625 316.835938 L 51.609375 286.964844 Z M 220.453125 110.847656 " fill-opacity="1" fill-rule="nonzero"/></g></g></g><g clip-path="url(#15c772ad3b)"><g clip-path="url(#3b82f66263)"><g clip-path="url(#2704f44e2a)"><path fill="#2dbaff" d="M 675.789062 256.019531 L 706.816406 286.027344 L 399.214844 604.03125 L 368.1875 574.019531 Z M 675.789062 256.019531 " fill-opacity="1" fill-rule="nonzero"/></g></g></g><g clip-path="url(#9ffd8bd8c4)"><g clip-path="url(#197faa40fa)"><g clip-path="url(#03cf771633)"><path fill="#2dbaff" d="M 515.992188 104.128906 L 547.152344 134 L 373.992188 314.621094 L 342.832031 284.75 Z M 515.992188 104.128906 " fill-opacity="1" fill-rule="nonzero"/></g></g></g><g clip-path="url(#600c1c5b74)"><g clip-path="url(#56a269b173)"><g clip-path="url(#a2621061e1)"><path fill="#ffffff" d="M 359.347656 436.4375 C 350.351562 435.855469 343.53125 428.09375 344.113281 419.09375 C 344.691406 410.101562 352.457031 403.28125 361.453125 403.859375 C 370.445312 404.441406 377.269531 412.207031 376.6875 421.203125 C 376.105469 430.199219 368.339844 437.019531 359.347656 436.4375 Z M 362.25 391.492188 C 346.429688 390.46875 332.769531 402.46875 331.746094 418.296875 C 330.722656 434.125 342.722656 447.777344 358.546875 448.800781 C 374.375 449.824219 388.035156 437.828125 389.058594 422 C 390.082031 406.171875 378.078125 392.515625 362.25 391.492188 " fill-opacity="1" fill-rule="nonzero"/></g></g></g><g clip-path="url(#4ffaff3509)"><g clip-path="url(#399531ab87)"><g clip-path="url(#a0dadd1424)"><path fill="#ffffff" d="M 365.71875 399.304688 L 357.808594 398.792969 C 356.253906 398.695312 355.074219 397.351562 355.175781 395.792969 L 355.6875 387.886719 C 355.789062 386.335938 357.128906 385.148438 358.683594 385.25 L 366.59375 385.761719 C 368.152344 385.863281 369.328125 387.210938 369.226562 388.761719 L 368.714844 396.667969 C 368.613281 398.226562 367.277344 399.40625 365.71875 399.304688 " fill-opacity="1" fill-rule="nonzero"/></g></g></g><g clip-path="url(#eb595cf72f)"><g clip-path="url(#49682a292b)"><g clip-path="url(#b2edc5304a)"><path fill="#ffffff" d="M 378.898438 409.171875 L 373.664062 403.214844 C 372.636719 402.046875 372.753906 400.261719 373.921875 399.234375 L 379.878906 394.003906 C 381.050781 392.976562 382.828125 393.09375 383.863281 394.261719 L 389.097656 400.214844 C 390.125 401.382812 390.007812 403.167969 388.839844 404.195312 L 382.882812 409.429688 C 381.707031 410.457031 379.925781 410.34375 378.898438 409.171875 " fill-opacity="1" fill-rule="nonzero"/></g></g></g><g clip-path="url(#cf93409ded)"><g clip-path="url(#ed852f9ecf)"><g clip-path="url(#8c8eaec31d)"><path fill="#ffffff" d="M 381.242188 425.46875 L 381.753906 417.558594 C 381.855469 416.003906 383.195312 414.824219 384.75 414.925781 L 392.660156 415.4375 C 394.21875 415.535156 395.394531 416.878906 395.292969 418.433594 L 394.78125 426.34375 C 394.679688 427.894531 393.34375 429.074219 391.785156 428.976562 L 383.875 428.464844 C 382.320312 428.363281 381.140625 427.019531 381.242188 425.46875 " fill-opacity="1" fill-rule="nonzero"/></g></g></g><g clip-path="url(#df50ea9449)"><g clip-path="url(#9f8e9e254b)"><g clip-path="url(#ee32e09aad)"><path fill="#ffffff" d="M 371.375 438.648438 L 377.332031 433.414062 C 378.5 432.386719 380.28125 432.503906 381.316406 433.671875 L 386.546875 439.628906 C 387.574219 440.800781 387.460938 442.585938 386.289062 443.613281 L 380.335938 448.839844 C 379.160156 449.871094 377.378906 449.757812 376.351562 448.582031 L 371.117188 442.632812 C 370.089844 441.460938 370.207031 439.675781 371.375 438.648438 " fill-opacity="1" fill-rule="nonzero"/></g></g></g><g clip-path="url(#fd56c6cb7a)"><g clip-path="url(#fec06ff510)"><g clip-path="url(#78442ed8f1)"><path fill="#ffffff" d="M 355.078125 440.992188 L 362.992188 441.503906 C 364.550781 441.601562 365.722656 442.945312 365.621094 444.503906 L 365.113281 452.410156 C 365.011719 453.960938 363.675781 455.148438 362.117188 455.046875 L 354.203125 454.535156 C 352.652344 454.433594 351.472656 453.085938 351.574219 451.535156 L 352.082031 443.628906 C 352.183594 442.070312 353.527344 440.890625 355.078125 440.992188 " fill-opacity="1" fill-rule="nonzero"/></g></g></g><g clip-path="url(#ab26bd44a2)"><g clip-path="url(#a86e7bf3b9)"><g clip-path="url(#81695a4c45)"><path fill="#ffffff" d="M 341.898438 431.125 L 347.132812 437.082031 C 348.160156 438.25 348.042969 440.035156 346.875 441.0625 L 340.917969 446.292969 C 339.75 447.324219 337.96875 447.210938 336.9375 446.035156 L 331.707031 440.082031 C 330.679688 438.914062 330.796875 437.128906 331.964844 436.101562 L 337.917969 430.867188 C 339.089844 429.839844 340.871094 429.953125 341.898438 431.125 " fill-opacity="1" fill-rule="nonzero"/></g></g></g><g clip-path="url(#567b368b1f)"><g clip-path="url(#e64e075476)"><g clip-path="url(#592053c44c)"><path fill="#ffffff" d="M 339.554688 414.828125 L 339.046875 422.742188 C 338.945312 424.292969 337.601562 425.472656 336.050781 425.371094 L 328.136719 424.859375 C 326.578125 424.761719 325.40625 423.417969 325.507812 421.863281 L 326.015625 413.953125 C 326.117188 412.402344 327.453125 411.222656 329.011719 411.320312 L 336.925781 411.832031 C 338.476562 411.933594 339.65625 413.277344 339.554688 414.828125 " fill-opacity="1" fill-rule="nonzero"/></g></g></g><g clip-path="url(#255af7cbd3)"><g clip-path="url(#ca5431eb3e)"><g clip-path="url(#585b9ee6f0)"><path fill="#ffffff" d="M 349.421875 401.648438 L 343.464844 406.882812 C 342.296875 407.910156 340.515625 407.792969 339.484375 406.625 L 334.253906 400.667969 C 333.226562 399.5 333.34375 397.714844 334.511719 396.683594 L 340.464844 391.457031 C 341.640625 390.429688 343.417969 390.542969 344.445312 391.714844 L 349.679688 397.664062 C 350.707031 398.835938 350.59375 400.621094 349.421875 401.648438 " fill-opacity="1" fill-rule="nonzero"/></g></g></g><g clip-path="url(#9010d510e4)"><g clip-path="url(#9bdcf7eded)"><g clip-path="url(#72d55996eb)"><path fill="#ffffff" d="M 406.941406 466.898438 C 400.863281 466.507812 396.261719 461.269531 396.652344 455.199219 C 397.046875 449.128906 402.285156 444.519531 408.359375 444.914062 C 414.425781 445.304688 419.03125 450.546875 418.640625 456.621094 C 418.246094 462.691406 413.003906 467.292969 406.941406 466.898438 Z M 408.902344 436.5625 C 398.214844 435.875 388.996094 443.976562 388.304688 454.660156 C 387.613281 465.339844 395.710938 474.558594 406.398438 475.25 C 417.074219 475.9375 426.300781 467.839844 426.988281 457.160156 C 427.679688 446.476562 419.578125 437.253906 408.902344 436.5625 " fill-opacity="1" fill-rule="nonzero"/></g></g></g><g clip-path="url(#c08402a2df)"><g clip-path="url(#ce368738e4)"><g clip-path="url(#ebe269cb7e)"><path fill="#ffffff" d="M 411.238281 441.839844 L 405.898438 441.492188 C 404.847656 441.425781 404.054688 440.523438 404.121094 439.472656 L 404.464844 434.132812 C 404.535156 433.082031 405.4375 432.285156 406.488281 432.355469 L 411.828125 432.699219 C 412.878906 432.769531 413.671875 433.671875 413.605469 434.722656 L 413.261719 440.0625 C 413.191406 441.113281 412.289062 441.90625 411.238281 441.839844 " fill-opacity="1" fill-rule="nonzero"/></g></g></g><g clip-path="url(#a4595c9be0)"><g clip-path="url(#2d55fe84ea)"><g clip-path="url(#ebf762b9ac)"><path fill="#ffffff" d="M 420.132812 448.5 L 416.605469 444.480469 C 415.910156 443.683594 415.988281 442.484375 416.777344 441.789062 L 420.792969 438.257812 C 421.582031 437.5625 422.789062 437.640625 423.484375 438.429688 L 427.011719 442.453125 C 427.710938 443.242188 427.632812 444.441406 426.835938 445.140625 L 422.820312 448.675781 C 422.03125 449.367188 420.824219 449.289062 420.132812 448.5 " fill-opacity="1" fill-rule="nonzero"/></g></g></g><g clip-path="url(#6134a19e04)"><g clip-path="url(#cc443016c7)"><g clip-path="url(#6d1ff1d36a)"><path fill="#ffffff" d="M 421.714844 459.496094 L 422.058594 454.15625 C 422.128906 453.105469 423.039062 452.3125 424.082031 452.378906 L 429.421875 452.726562 C 430.472656 452.792969 431.265625 453.699219 431.199219 454.746094 L 430.855469 460.089844 C 430.785156 461.136719 429.882812 461.933594 428.832031 461.863281 L 423.492188 461.519531 C 422.445312 461.453125 421.648438 460.546875 421.714844 459.496094 " fill-opacity="1" fill-rule="nonzero"/></g></g></g><g clip-path="url(#8c71fe3c3a)"><g clip-path="url(#2226be815a)"><g clip-path="url(#233bc6ed8d)"><path fill="#ffffff" d="M 415.058594 468.398438 L 419.074219 464.863281 C 419.863281 464.171875 421.070312 464.25 421.765625 465.039062 L 425.292969 469.058594 C 425.988281 469.847656 425.914062 471.050781 425.117188 471.742188 L 421.101562 475.277344 C 420.3125 475.96875 419.105469 475.890625 418.414062 475.101562 L 414.886719 471.082031 C 414.191406 470.292969 414.269531 469.089844 415.058594 468.398438 " fill-opacity="1" fill-rule="nonzero"/></g></g></g><g clip-path="url(#36a68707f1)"><g clip-path="url(#60e67bfcd4)"><g clip-path="url(#0d74b97977)"><path fill="#ffffff" d="M 404.054688 469.972656 L 409.398438 470.320312 C 410.445312 470.386719 411.242188 471.292969 411.171875 472.347656 L 410.828125 477.683594 C 410.761719 478.730469 409.855469 479.527344 408.804688 479.457031 L 403.464844 479.113281 C 402.414062 479.046875 401.621094 478.140625 401.6875 477.089844 L 402.035156 471.753906 C 402.101562 470.699219 403.007812 469.90625 404.054688 469.972656 " fill-opacity="1" fill-rule="nonzero"/></g></g></g><g clip-path="url(#e59a70b3e6)"><g clip-path="url(#d400f45676)"><g clip-path="url(#2459e05e03)"><path fill="#ffffff" d="M 395.164062 463.316406 L 398.691406 467.339844 C 399.386719 468.128906 399.3125 469.328125 398.515625 470.023438 L 394.5 473.554688 C 393.707031 474.25 392.503906 474.171875 391.8125 473.382812 L 388.277344 469.359375 C 387.585938 468.570312 387.664062 467.371094 388.453125 466.675781 L 392.472656 463.144531 C 393.261719 462.449219 394.464844 462.527344 395.164062 463.316406 " fill-opacity="1" fill-rule="nonzero"/></g></g></g><g clip-path="url(#0cad7dad64)"><g clip-path="url(#c30418d89a)"><g clip-path="url(#5e6bf181d3)"><path fill="#ffffff" d="M 393.582031 452.316406 L 393.234375 457.65625 C 393.167969 458.707031 392.257812 459.5 391.207031 459.433594 L 385.871094 459.085938 C 384.820312 459.019531 384.023438 458.113281 384.089844 457.066406 L 384.433594 451.722656 C 384.503906 450.675781 385.414062 449.878906 386.460938 449.949219 L 391.796875 450.292969 C 392.847656 450.359375 393.648438 451.265625 393.582031 452.316406 " fill-opacity="1" fill-rule="nonzero"/></g></g></g><g clip-path="url(#f2ca555697)"><g clip-path="url(#f164863795)"><g clip-path="url(#2862bb6c75)"><path fill="#ffffff" d="M 400.234375 443.421875 L 396.21875 446.953125 C 395.425781 447.648438 394.222656 447.570312 393.53125 446.78125 L 389.996094 442.757812 C 389.304688 441.964844 389.382812 440.761719 390.171875 440.070312 L 394.191406 436.539062 C 394.980469 435.84375 396.183594 435.921875 396.882812 436.710938 L 400.410156 440.730469 C 401.109375 441.519531 401.03125 442.722656 400.234375 443.421875 " fill-opacity="1" fill-rule="nonzero"/></g></g></g><g clip-path="url(#86a3de19ef)"><g clip-path="url(#648a7e65d6)"><g clip-path="url(#efc07a81dc)"><path stroke-linecap="butt" transform="matrix(0.541759, 0.51865, -0.51865, 0.541759, 220.978921, 162.746892)" fill="none" stroke-linejoin="miter" d="M 0.000754131 -0.00219553 L 231.780485 0.00219644 L 231.780114 220.948187 L 0.000222945 220.951159 Z M 0.000754131 -0.00219553 " stroke="#ffffff" stroke-width="20" stroke-opacity="1" stroke-miterlimit="4"/></g></g></g><g clip-path="url(#408b35dcda)"><g clip-path="url(#e7f67839df)"><g clip-path="url(#9803493ab4)"><path stroke-linecap="butt" transform="matrix(0.541759, 0.51865, -0.51865, 0.541759, 380.056391, 308.748139)" fill="none" stroke-linejoin="miter" d="M 0.0000753652 0.00336231 L 236.804586 -0.000621622 L 236.803231 225.892587 L -0.00111984 225.889207 Z M 0.0000753652 0.00336231 " stroke="#ffffff" stroke-width="20" stroke-opacity="1" stroke-miterlimit="4"/></g></g></g><g clip-path="url(#98773d2139)"><g clip-path="url(#60bcb6f14f)"><g clip-path="url(#5325992144)"><path stroke-linecap="butt" transform="matrix(0.541759, 0.51865, -0.51865, 0.541759, 518.345185, 162.746935)" fill="none" stroke-linejoin="miter" d="M -0.00215838 0.000513003 L 241.163736 0.00316578 L 241.16254 225.88901 L 0.000248149 225.890119 Z M -0.00215838 0.000513003 " stroke="#ffffff" stroke-width="20" stroke-opacity="1" stroke-miterlimit="4"/></g></g></g></svg>